<svg className="toggle-icon" xmlns="http://www.w3.org/2000/svg" viewBox="0 0 30 30">
  <path className="moon-icon" d="M 15 3 C 12.103409 3 9.4362295 4.030139 7.3613281 5.7441406 A 1.0001 1.0001 0 0 0 6.9980469 6.5097656 C 6.9931929 7.2791189 6.427489 7.8845592 5.6835938 7.9765625 A 1.0001 1.0001 0 0 0 4.9707031 8.4199219 C 3.7293794 10.308608 3 12.572419 3 15 C 3 19.229296 5.2001691 22.953031 8.5136719 25.087891 A 1.0001 1.0001 0 0 0 9.53125 25.126953 C 9.6892974 25.041507 9.8397017 25 10 25 C 10.486495 25 10.872737 25.335112 10.972656 25.78125 A 1.0001 1.0001 0 0 0 11.669922 26.523438 C 12.723435 26.827544 13.840629 27 15 27 C 21.615466 27 27 21.615466 27 15 C 27 8.3845336 21.615466 3 15 3 z M 15 5 C 15.095054 5 15.186844 5.0110547 15.28125 5.0136719 C 16.034133 5.6428729 16.722336 6.3473206 17.320312 7.1269531 C 17.533313 7.0489531 17.76 7 18 7 C 19.105 7 20 7.895 20 9 C 20 9.65 19.684078 10.220937 19.205078 10.585938 C 19.615078 11.714937 19.865312 12.916969 19.945312 14.167969 C 21.135313 14.565969 22 15.676 22 17 C 22 18.657 20.657 20 19 20 C 18.997 20 18.995188 19.998047 18.992188 19.998047 C 18.175641 21.948067 16.895074 23.653623 15.292969 24.986328 C 15.194667 24.989167 15.099005 25 15 25 C 14.129936 25 13.296189 24.8509 12.486328 24.638672 C 11.973454 23.715933 11.122303 23 10 23 C 9.7483559 23 9.5495392 23.116525 9.3203125 23.175781 C 6.7246019 21.368644 5 18.40667 5 15 C 5 13.008368 5.5971642 11.170627 6.5996094 9.6113281 C 7.6881703 9.2148214 8.4407644 8.3760963 8.71875 7.2382812 C 10.438474 5.845211 12.611501 5 15 5 z M 13 8 C 11.895 8 11 8.895 11 10 C 11 11.105 11.895 12 13 12 C 13.366 12 13.705 11.893656 14 11.722656 C 13.405 11.375656 13 10.738 13 10 C 13 9.262 13.405 8.6243438 14 8.2773438 C 13.705 8.1063438 13.366 8 13 8 z M 10 14 C 8.895 14 8 14.895 8 16 C 8 17.105 8.895 18 10 18 C 10.366 18 10.705 17.893656 11 17.722656 C 10.405 17.375656 10 16.738 10 16 C 10 15.262 10.405 14.624344 11 14.277344 C 10.705 14.106344 10.366 14 10 14 z"/>
</svg>