<svg width="212" height="123" viewBox="0 0 212 123" fill="none" xmlns="http://www.w3.org/2000/svg">
<rect width="212" height="123" fill="white"/>
<path d="M51.5 35C45.1034 35 39.2133 37.2749 34.6313 41.06C34.3819 41.2659 34.1808 41.524 34.0422 41.8162C33.9036 42.1083 33.8308 42.4274 33.829 42.7507C33.8183 44.4497 32.569 45.7867 30.9263 45.9899C30.6086 46.0293 30.3032 46.1372 30.0314 46.3063C29.7596 46.4753 29.5277 46.7015 29.352 46.969C26.6107 51.1398 25 56.1391 25 61.5C25 70.8397 29.8587 79.0629 37.176 83.7774C37.5085 83.9917 37.8925 84.1128 38.2878 84.128C38.6831 84.1432 39.0752 84.0519 39.4232 83.8637C39.7722 83.675 40.1043 83.5833 40.4583 83.5833C41.5327 83.5833 42.3856 84.3234 42.6063 85.3086C42.6926 85.6947 42.8811 86.0504 43.1519 86.3387C43.4228 86.6271 43.7662 86.8373 44.1461 86.9476C46.4726 87.6192 48.9397 88 51.5 88C66.1092 88 78 76.1092 78 61.5C78 46.8908 66.1092 35 51.5 35ZM51.5 39.4167C51.7099 39.4167 51.9126 39.4411 52.1211 39.4469C53.7837 40.8363 55.3035 42.392 56.624 44.1137C57.0944 43.9414 57.595 43.8333 58.125 43.8333C60.5652 43.8333 62.5417 45.8098 62.5417 48.25C62.5417 49.6854 61.844 50.9462 60.7862 51.7523C61.6916 54.2455 62.2442 56.9 62.4209 59.6626C65.0488 60.5415 66.9583 62.9928 66.9583 65.9167C66.9583 69.5759 63.9925 72.5417 60.3333 72.5417C60.3267 72.5417 60.3227 72.5374 60.3161 72.5374C58.5129 76.8436 55.685 80.6101 52.147 83.5531C51.9299 83.5594 51.7186 83.5833 51.5 83.5833C49.5786 83.5833 47.7374 83.2541 45.949 82.7854C44.8164 80.7477 42.9368 79.1667 40.4583 79.1667C39.9026 79.1667 39.4636 79.424 38.9574 79.5548C33.2252 75.5641 29.4167 69.0231 29.4167 61.5C29.4167 57.1018 30.7354 53.0435 32.9491 49.6C35.353 48.7244 37.015 46.8722 37.6289 44.3595C41.4266 41.2832 46.2254 39.4167 51.5 39.4167ZM47.0833 46.0417C44.6431 46.0417 42.6667 48.0181 42.6667 50.4583C42.6667 52.8985 44.6431 54.875 47.0833 54.875C47.8916 54.875 48.6402 54.6402 49.2917 54.2625C47.9777 53.4962 47.0833 52.0881 47.0833 50.4583C47.0833 48.8286 47.9777 47.4204 49.2917 46.6541C48.6402 46.2765 47.8916 46.0417 47.0833 46.0417ZM40.4583 59.2917C38.0181 59.2917 36.0417 61.2681 36.0417 63.7083C36.0417 66.1485 38.0181 68.125 40.4583 68.125C41.2666 68.125 42.0152 67.8902 42.6667 67.5125C41.3527 66.7462 40.4583 65.3381 40.4583 63.7083C40.4583 62.0786 41.3527 60.6704 42.6667 59.9041C42.0152 59.5265 41.2666 59.2917 40.4583 59.2917Z" fill="black"/>
<rect x="103" width="109" height="123" fill="black"/>
<path d="M117 20C116.483 20 115.967 20.1979 115.6 20.5931C114.8 21.3836 114.8 22.6347 115.6 23.3593L121.799 29.5516C122.199 29.9468 122.734 30.1447 123.2 30.1447C123.667 30.1447 124.2 29.9468 124.6 29.5516C125.4 28.7611 125.4 27.51 124.6 26.7854L118.4 20.5931C118.033 20.1979 117.516 20 117 20ZM130.333 20C129.803 20 129.294 20.2082 128.919 20.5788C128.544 20.9494 128.333 21.4521 128.333 21.9762C128.333 22.5003 128.544 23.003 128.919 23.3736C129.294 23.7442 129.803 23.9524 130.333 23.9524C130.864 23.9524 131.372 23.7442 131.747 23.3736C132.122 23.003 132.333 22.5003 132.333 21.9762C132.333 21.4521 132.122 20.9494 131.747 20.5788C131.372 20.2082 130.864 20 130.333 20ZM197 20C196.484 20 195.967 20.1979 195.601 20.5931L190.267 25.863C189.467 26.6534 189.467 27.9045 190.267 28.6291C190.667 29.0243 191.2 29.2222 191.667 29.2222C192.134 29.2222 192.667 29.0243 193.067 28.6291L198.4 23.3593C199.2 22.5688 199.2 21.3177 198.4 20.5931C198.033 20.1979 197.517 20 197 20ZM146.34 22.348C145.662 22.3418 144.983 22.4373 144.333 22.6349C142.6 23.2278 141.133 24.4796 140.4 26.1923C139.933 27.1804 140.399 28.3664 141.466 28.7616C142.333 29.2227 143.467 28.7606 143.934 27.7066C144.2 27.0479 144.733 26.587 145.466 26.3236C146.133 26.1259 146.866 26.1923 147.466 26.5217L153.667 30.1447C155.667 31.3304 158.2 31.3304 160.267 30.1447L166.466 26.5217C167.066 26.1923 167.8 26.0601 168.466 26.3236C169.133 26.5212 169.667 27.0479 170 27.7066L172.867 34.2283C173.201 34.9529 173.933 35.4145 174.733 35.4145C175 35.4145 175.267 35.3482 175.534 35.2164C176.534 34.7553 177 33.6352 176.6 32.6471L173.733 26.1267C173 24.4799 171.533 23.1619 169.8 22.6349C168.066 22.1079 166.134 22.3058 164.534 23.228L158.333 26.8511C157.533 27.3122 156.599 27.3122 155.799 26.8511L149.6 23.228C148.6 22.6516 147.47 22.3583 146.34 22.348ZM131.948 34.4869C131.814 34.4741 131.675 34.4756 131.534 34.4921L128.2 34.8214C126.334 35.019 124.6 36.0071 123.534 37.4563C122.467 38.9714 122.066 40.8164 122.466 42.595C122.666 43.5172 123.466 44.1749 124.4 44.1749C124.533 44.1749 124.667 44.1751 124.867 44.1093C125.934 43.8458 126.6 42.7921 126.4 41.7381C126.266 41.0135 126.399 40.3548 126.799 39.7619C127.199 39.169 127.867 38.8397 128.6 38.7738L131.933 38.4444C133 38.3127 133.866 37.39 133.733 36.2701C133.616 35.3479 132.887 34.577 131.948 34.4869ZM185.452 34.8137C184.512 34.8921 183.784 35.6196 183.667 36.5995C183.533 37.6535 184.333 38.6421 185.466 38.7738C186.2 38.8397 186.8 39.169 187.267 39.7619C187.667 40.3548 187.867 41.0135 187.667 41.7381L186.133 48.7204C185.6 50.9601 186.4 53.3317 188.133 54.9127L193.534 59.655C194.067 60.1162 194.4 60.7754 194.4 61.5C194.4 62.2246 194.134 62.8838 193.534 63.345L188.133 68.0873C186.4 69.6024 185.6 71.9741 186.133 74.2796L187.667 81.2619C187.8 81.9865 187.667 82.6452 187.267 83.2381C186.8 83.7651 186.2 84.1603 185.466 84.2262C184.4 84.3579 183.533 85.2807 183.667 86.4005C183.734 87.4545 184.667 88.1786 185.667 88.1786H185.867C187.734 87.981 189.4 87.0587 190.466 85.5436C191.533 84.0286 191.934 82.1836 191.534 80.405L190 73.4228C189.8 72.5664 190.133 71.6444 190.8 71.0516L196.201 66.3092C197.601 65.1235 198.4 63.3444 198.4 61.5C198.4 59.6556 197.601 57.9423 196.201 56.6908L190.8 51.9484C190.133 51.3556 189.8 50.4336 190 49.5772L191.534 42.595C191.934 40.8164 191.533 38.9056 190.466 37.4563C189.4 35.9413 187.667 35.019 185.867 34.8214C185.726 34.805 185.586 34.8025 185.452 34.8137ZM157 39.1032C144.467 39.1032 134.333 49.1159 134.333 61.5C134.333 73.8841 144.467 83.8968 157 83.8968C169.533 83.8968 179.667 73.8841 179.667 61.5C179.667 49.1159 169.533 39.1032 157 39.1032ZM157 43.7143C158.133 43.7143 159 44.5706 159 45.6905C159 46.8103 158.133 47.6667 157 47.6667C156.133 47.6667 155.2 47.7328 154.333 47.9304C154.2 47.9304 154.067 47.996 153.934 47.996C153 47.996 152.133 47.337 152 46.4148C151.8 45.295 152.467 44.2413 153.534 44.0437C154.667 43.846 155.8 43.7143 157 43.7143ZM125.864 47.17C125.733 47.1689 125.599 47.1814 125.466 47.2061C124.399 47.4696 123.733 48.5233 123.933 49.5772C124.133 50.4336 123.799 51.3556 123.133 51.9484L117.733 56.6908C116.399 57.9423 115.6 59.6556 115.6 61.5C115.6 63.3444 116.399 65.0577 117.799 66.3092L123.2 71.0516C123.867 71.6444 124.2 72.5664 124 73.4228L122.466 80.405C122.066 82.1836 122.467 84.0944 123.534 85.5436C124.6 87.0587 126.333 87.981 128.133 88.1786L135.333 88.8373C136.2 88.9032 137 89.4955 137.4 90.286L140.267 96.8077C140.6 97.5323 141.333 97.9939 142.133 97.9939C142.399 97.9939 142.667 97.9275 142.934 97.7958C143.934 97.3347 144.4 96.2146 144 95.2265L141.133 88.7061C140.199 86.5981 138.133 85.0825 135.799 84.8849L128.6 84.2262C127.867 84.1603 127.266 83.831 126.799 83.2381C126.333 82.6452 126.2 81.9206 126.333 81.2619L127.867 74.2796C128.4 72.0399 127.6 69.6683 125.867 68.0873L120.466 63.345C119.933 62.8838 119.6 62.2246 119.6 61.5C119.6 60.7754 119.866 60.1162 120.466 59.655L125.867 54.9127C127.6 53.3976 128.4 51.0259 127.867 48.7204C127.634 47.7982 126.787 47.1782 125.864 47.17ZM143.661 50.7918C144.052 50.7933 144.449 50.9114 144.799 51.1585C145.733 51.7513 146 53.0024 145.333 53.9246C143.8 56.1643 143 58.7992 143 61.5C143 65.1889 144.466 68.6807 147.133 71.2497C147.933 72.0402 147.933 73.2913 147.133 74.0159C146.733 74.477 146.2 74.6746 145.667 74.6746C145.133 74.6746 144.667 74.4767 144.267 74.0815C140.867 70.722 139 66.2429 139 61.5C139 58.0087 140 54.5831 142 51.6847C142.375 51.1083 143.01 50.7892 143.661 50.7918ZM174.742 87.5379C174.008 87.5193 173.284 87.965 172.934 88.7061L170.066 95.2265C169.8 95.8852 169.267 96.3473 168.534 96.6108C167.867 96.8085 167.134 96.7421 166.534 96.4127L160.333 92.7897C158.333 91.604 155.8 91.604 153.733 92.7897L147.534 96.4127C146.6 96.9397 146.266 98.191 146.799 99.1132C147.333 100.035 148.6 100.365 149.534 99.8376L155.733 96.2146C156.533 95.7535 157.467 95.7535 158.267 96.2146L164.466 99.8376C165.466 100.43 166.6 100.694 167.733 100.694C168.4 100.694 169.066 100.563 169.733 100.365C171.466 99.7722 172.933 98.5204 173.667 96.8077L176.534 90.286C177.001 89.2979 176.533 88.1132 175.466 87.718C175.233 87.6027 174.987 87.544 174.742 87.5379ZM189.909 92.131C189.401 92.131 188.901 92.3288 188.534 92.7241C187.734 93.5145 187.734 94.7656 188.534 95.4902L195.601 102.407C196.001 102.802 196.467 103 197 103C197.534 103 198 102.802 198.4 102.407C199.2 101.616 199.2 100.365 198.4 99.6407L191.334 92.7241C190.934 92.3288 190.417 92.131 189.909 92.131Z" fill="white"/>
</svg>
