<svg width="266" height="166" viewBox="0 0 266 166" fill="none" xmlns="http://www.w3.org/2000/svg">
<rect width="266" height="166" fill="white"/>
<circle cx="133" cy="83" r="65" fill="white"/>
<path d="M132.917 18C97.065 18 68 47.061 68 82.915C68 118.768 97.066 147.832 132.917 147.832C168.771 147.832 197.835 118.768 197.835 82.915C197.835 47.061 168.771 18 132.917 18ZM167.333 49.29C166.979 49.018 166.526 48.788 165.985 48.6C165.456 48.413 164.878 48.223 164.262 48.038C163.657 47.854 163.082 47.604 162.561 47.292C162.043 46.987 161.608 46.573 161.264 46.071C160.924 45.571 160.752 44.901 160.752 44.076C160.752 43.276 160.91 42.564 161.225 41.968C161.543 41.363 161.969 40.851 162.495 40.447C163.024 40.038 163.641 39.728 164.325 39.523C165.018 39.319 165.743 39.214 166.473 39.214C167.325 39.214 168.157 39.338 168.946 39.576C169.706 39.81 170.405 40.196 171.02 40.727L168.846 43.106C168.571 42.789 168.207 42.547 167.762 42.393C167.289 42.225 166.832 42.142 166.41 42.142C166.162 42.142 165.902 42.168 165.639 42.228C165.375 42.287 165.123 42.379 164.887 42.505C164.647 42.634 164.446 42.805 164.297 43.014C164.143 43.229 164.065 43.493 164.065 43.794C164.065 44.289 164.245 44.655 164.618 44.92C164.966 45.168 165.411 45.384 165.944 45.554C166.465 45.727 167.034 45.903 167.633 46.071C168.225 46.242 168.785 46.485 169.301 46.794C169.813 47.102 170.242 47.523 170.574 48.038C170.91 48.553 171.078 49.25 171.078 50.122C171.078 50.948 170.922 51.682 170.613 52.301C170.304 52.918 169.883 53.436 169.357 53.84C168.832 54.242 168.209 54.553 167.517 54.747C166.814 54.947 166.066 55.046 165.29 55.046C164.317 55.046 163.399 54.898 162.565 54.601C161.756 54.312 160.995 53.847 160.292 53.212L162.552 50.728C162.892 51.158 163.323 51.499 163.822 51.74C164.355 51.99 164.916 52.121 165.484 52.121C165.765 52.121 166.048 52.089 166.332 52.024C166.617 51.958 166.875 51.853 167.107 51.725C167.341 51.589 167.529 51.412 167.675 51.204C167.82 50.989 167.894 50.73 167.894 50.444C167.896 49.949 167.71 49.573 167.333 49.29ZM149.44 39.602H152.624V51.731H158.841V54.66H149.441V39.602H149.44ZM142.511 39.602H145.693V54.66H142.511V39.602ZM131.336 39.602H133.999L140.55 54.66H136.952L135.641 51.431H129.606L128.337 54.66H124.827L131.336 39.602ZM111.6 39.602H117.407C118.171 39.602 118.906 39.676 119.595 39.827C120.274 39.971 120.879 40.223 121.391 40.566C121.901 40.91 122.311 41.376 122.612 41.955C122.913 42.534 123.065 43.273 123.065 44.142C123.065 45.192 122.789 46.098 122.243 46.834C121.72 47.539 120.952 47.997 119.962 48.205L119.728 48.255L123.579 54.66H119.762L116.579 48.574H114.785V54.66H111.601V39.602H111.6ZM94.867 43.848C95.267 42.875 95.836 42.036 96.558 41.352C97.277 40.668 98.142 40.137 99.13 39.766C100.12 39.399 101.218 39.213 102.392 39.213C103.597 39.213 104.721 39.361 105.736 39.65C106.714 39.93 107.59 40.417 108.338 41.092L106.092 43.543C105.643 43.096 105.131 42.751 104.576 42.512C103.994 42.262 103.26 42.142 102.392 42.142C101.667 42.142 101.001 42.262 100.413 42.512C99.822 42.761 99.31 43.11 98.888 43.553C98.465 43.999 98.139 44.533 97.913 45.142C97.688 45.752 97.578 46.421 97.578 47.131C97.578 47.854 97.688 48.526 97.913 49.131C98.139 49.732 98.467 50.263 98.888 50.708C99.311 51.149 99.823 51.5 100.413 51.748C101 51.995 101.668 52.119 102.392 52.119C103.13 52.119 103.773 52.036 104.311 51.868C104.817 51.711 105.233 51.549 105.547 51.383L105.569 51.37L105.604 51.337L105.638 51.276V48.719H102.908V45.796H108.694V53.618C107.723 54.117 106.703 54.482 105.664 54.703C104.601 54.933 103.498 55.045 102.392 55.045C101.218 55.045 100.121 54.86 99.13 54.492C98.142 54.127 97.276 53.591 96.558 52.907C95.839 52.226 95.267 51.383 94.867 50.408C94.465 49.436 94.26 48.334 94.26 47.131C94.26 45.93 94.465 44.826 94.867 43.848ZM115.65 95.518C114.677 95.946 113.435 96.432 112.95 96.69C112.055 97.167 110.67 98.211 109.892 99.409C109.316 100.3 108.78 101.511 108.606 102.305C108.5 102.805 108.447 103.537 108.458 104.397C108.479 106.403 108.825 109.071 109.514 110.901C110.298 112.979 110.725 113.671 111.629 115.776C112.013 116.667 112.373 117.516 112.547 117.93C112.62 118.094 112.598 118.282 112.5 118.43C112.26 118.797 111.721 119.489 110.828 119.969C109.273 120.809 105.998 121.112 104.373 121.123H104.366C102.744 121.111 99.469 120.809 97.912 119.969C97.019 119.489 96.482 118.797 96.242 118.43C96.142 118.282 96.123 118.094 96.193 117.93C96.369 117.516 96.73 116.666 97.113 115.776C98.017 113.671 98.444 112.979 99.228 110.901C99.917 109.071 100.263 106.403 100.283 104.397C100.293 103.538 100.242 102.805 100.133 102.305C99.959 101.51 99.424 100.299 98.848 99.409C98.072 98.212 96.684 97.167 95.791 96.69C95.119 96.333 92.983 95.532 92.143 95.069C91.073 94.477 89.678 93.557 88.742 92.823C87.699 92.009 85.651 89.997 84.85 89.003C83.315 87.099 81.901 84.866 81.217 82.458C80.366 79.472 80.398 78.194 80.286 77.23C80.266 77.067 80.39 76.92 80.556 76.911C81.377 76.884 84.334 76.816 94.663 76.8C94.867 76.797 95.049 76.924 95.122 77.114C98.027 84.81 105.605 91.175 115.605 94.638C116.014 94.777 116.049 95.344 115.65 95.518ZM141.081 117.42C142.352 120.795 143.046 121.914 144.515 125.336C145.136 126.781 145.722 128.162 146.007 128.828C146.122 129.099 146.091 129.398 145.931 129.646C145.538 130.244 144.663 131.363 143.216 132.144C140.691 133.509 135.372 134.003 132.733 134.013H132.723C130.084 134.003 124.767 133.509 122.241 132.144C120.794 131.363 119.923 130.244 119.53 129.646C119.37 129.398 119.339 129.099 119.454 128.828C119.739 128.162 120.321 126.781 120.942 125.336C122.412 121.914 123.106 120.795 124.378 117.42C125.498 114.447 126.061 110.117 126.095 106.854C126.109 105.467 126.026 104.272 125.851 103.458C125.57 102.171 124.699 100.21 123.763 98.761C122.503 96.81 120.249 95.122 118.8 94.349C117.704 93.765 114.239 92.466 112.874 91.712C111.136 90.755 108.871 89.257 107.352 88.069C105.659 86.745 102.333 83.482 101.035 81.864C98.541 78.77 96.243 75.144 95.132 71.237C93.754 66.387 93.807 64.315 93.623 62.748C93.592 62.477 93.793 62.24 94.061 62.23C95.742 62.169 102.927 62.013 132.732 62.043C162.534 62.013 169.719 62.169 171.399 62.23C171.67 62.24 171.872 62.477 171.838 62.748C171.654 64.315 171.707 66.388 170.33 71.237C169.217 75.144 166.92 78.77 164.426 81.864C163.127 83.481 159.803 86.744 158.11 88.069C156.589 89.257 154.323 90.755 152.585 91.712C151.222 92.466 147.755 93.765 146.663 94.349C145.212 95.122 142.96 96.81 141.696 98.761C140.762 100.21 139.891 102.171 139.612 103.458C139.434 104.272 139.354 105.468 139.368 106.854C139.397 110.117 139.962 114.447 141.081 117.42ZM180.983 89.002C180.184 89.996 178.137 92.008 177.094 92.822C176.156 93.556 174.762 94.476 173.69 95.068C172.85 95.531 170.715 96.332 170.045 96.689C169.15 97.166 167.762 98.21 166.984 99.408C166.41 100.299 165.873 101.51 165.701 102.304C165.59 102.804 165.543 103.536 165.549 104.396C165.57 106.402 165.918 109.07 166.606 110.9C167.391 112.978 167.817 113.67 168.721 115.775C169.104 116.666 169.463 117.515 169.641 117.929C169.711 118.093 169.692 118.281 169.592 118.429C169.35 118.796 168.815 119.488 167.922 119.968C166.363 120.808 163.092 121.111 161.467 121.122H161.461C159.836 121.11 156.561 120.808 155.006 119.968C154.111 119.488 153.576 118.796 153.334 118.429C153.234 118.281 153.215 118.093 153.285 117.929C153.461 117.515 153.82 116.665 154.205 115.775C155.109 113.67 155.535 112.978 156.318 110.9C157.007 109.07 157.355 106.402 157.377 104.396C157.383 103.537 157.334 102.804 157.227 102.304C157.053 101.509 156.516 100.298 155.942 99.408C155.165 98.211 153.778 97.166 152.883 96.689C152.399 96.431 151.153 95.945 150.184 95.517C149.784 95.343 149.819 94.777 150.229 94.636C160.231 91.173 167.807 84.808 170.711 77.112C170.785 76.922 170.969 76.795 171.17 76.798C181.5 76.815 184.457 76.882 185.277 76.909C185.443 76.919 185.566 77.065 185.547 77.228C185.438 78.192 185.467 79.469 184.617 82.456C183.933 84.865 182.519 87.098 180.983 89.002ZM119.752 44.117C119.752 44.555 119.653 44.896 119.465 45.139C119.276 45.381 119.035 45.558 118.748 45.671C118.471 45.782 118.152 45.849 117.81 45.873C117.47 45.893 117.147 45.905 116.849 45.905H114.784V42.269H117.063C117.364 42.269 117.678 42.289 117.999 42.336C118.323 42.375 118.614 42.465 118.864 42.586C119.12 42.716 119.337 42.904 119.499 43.145C119.666 43.387 119.752 43.719 119.752 44.117ZM132.57 43.711L134.567 48.767H130.593L132.57 43.711Z" fill="#FEB672"/>
</svg>
