<?xml version="1.0" encoding="utf-8"?>
<!-- Generator: Adobe Illustrator 16.0.0, SVG Export Plug-In . SVG Version: 6.00 Build 0)  -->
<!DOCTYPE svg PUBLIC "-//W3C//DTD SVG 1.1//EN" "http://www.w3.org/Graphics/SVG/1.1/DTD/svg11.dtd">
<svg version="1.1" id="Layer_1" xmlns="http://www.w3.org/2000/svg" xmlns:xlink="http://www.w3.org/1999/xlink" x="0px" y="0px"
	 width="791.5px" height="792px" viewBox="-179.5 0 791.5 792" enable-background="new -179.5 0 791.5 792" xml:space="preserve">
<path fill="#FFFFFF" d="M214.513-0.022c-217.608,0-394.013,177.3-394.013,396.011S-3.095,792,214.513,792
	s394.013-177.3,394.013-396.011S432.121-0.022,214.513-0.022z M119.709,653.176c0,0-51.562,79.398-50.102,75.043
	c1.48-4.465-50.691-130.806-50.691-130.828c-10.212-24.773,1.59-36.657,26.238-26.523l56.222,23.155
	C126.024,604.131,134.277,630.809,119.709,653.176z M472.456,150.678L348.604,608.245c-6.99,25.804-12.804,46.9-12.935,46.856
	s-0.239-0.504-0.261-0.656c-0.044-0.154-20.229-8.513-44.9-18.582l-81.263-33.285c-24.648-10.068-65.148-26.306-89.972-35.936
	l-8.579-3.37c-24.822-9.651-30.201-33.548-11.976-53.07l251.538-270.585c18.183-19.565,15.94-22.017-4.984-5.449L27.103,486.347
	C6.09,502.85-31.34,508.21-56.098,498.384l-73.249-29.129c-24.758-9.893-25.738-28.101-2.134-40.53l573.78-302.405
	C465.88,113.888,479.445,124.853,472.456,150.678z"/>
</svg>
